<?xml version="1.0" encoding="utf-8"?>
<!-- Generator: Adobe Illustrator 19.0.1, SVG Export Plug-In . SVG Version: 6.00 Build 0)  -->
<svg version="1.1" id="Слой_1" xmlns="http://www.w3.org/2000/svg" xmlns:xlink="http://www.w3.org/1999/xlink" x="0px" y="0px"
	 width="278.2px" height="278.3px" viewBox="-281 159 278.2 278.3" style="enable-background:new -281 159 278.2 278.3;"
	 xml:space="preserve">
<style type="text/css">
	.st0{fill:#F48C37;}
</style>
<g>
	<path class="st0" d="M-138.1,160.6c3.7,1,7.5,1.7,11.1,3.2c17.2,6.7,27.9,24,26.5,42c-1.6,20.1-15.4,35.4-34.3,39
		c-23.4,4.4-45.3-10.5-49.8-33.9c-4.4-22.8,10.9-45,34.2-49.6c1-0.2,2-0.4,3-0.6C-144.3,160.6-141.2,160.6-138.1,160.6z"/>
	<path class="st0" d="M-100.3,304.5c0,12.4,0,24.3,0,36.5c-28.3,0-56.4,0-84.9,0c0-11.9,0-23.8,0-35.8c-0.2-0.1-0.3-0.1-0.6-0.1
		c-3.3,4.1-6.6,8.1-9.9,12.2c-5.2,6.4-10.3,13-15.5,19.5c-5.7,7.1-15.6,8-22.7,2.4c-6.6-5.4-7.6-15.4-2.1-22.4
		c10.7-13.2,21.3-26.6,32.2-39.7c11-13.2,25.3-20.1,42.4-20.7c12.2-0.3,24.4-0.3,36.6,0c16.8,0.3,30.9,7.3,42,19.6
		c9.3,10.3,17.6,21.6,26.3,32.4c2.1,2.6,4.2,5.3,6.4,7.8c6,7.1,5.2,17.4-1.9,23.1c-7.3,5.7-17.3,4.1-23.1-3.5
		c-7.9-10.2-16.1-20.4-24.2-30.5C-99.5,305.1-99.7,305-100.3,304.5z"/>
	<path class="st0" d="M-181,389.1c4,4,7.8,7.8,11.7,11.6c3.3,3.3,6.5,6.4,9.7,9.8c6.2,6.2,6.2,15.2,0.1,21.7
		c-5.7,6.2-14.7,7-21.2,1.4c-4.3-3.7-8.2-8-12.3-12c-6.2-6.2-12.3-12.7-18.8-18.6c-5.2-4.7-7.8-15.2-2.6-22.6
		c6.7-9.4,14.3-18.2,21.6-27.5c8.1,6.8,16.1,13.4,24.2,20.2C-172.6,378.3-176.7,383.5-181,389.1z"/>
	<path class="st0" d="M-104.3,389.3c-4.6-5.8-8.7-10.9-12.9-16.3c8-6.7,15.9-13.3,24.2-20.2c1.7,2.1,3.5,4.2,5.2,6.4
		c5.1,6.2,10,12.6,15.1,18.8c6,7.3,5.1,19.1-1.4,25.2c-10.1,9.4-19.6,19.5-29.4,29.2c-8.7,8.6-22.6,5.1-26.2-6.5
		c-2-6.3-0.1-11.6,4.4-16.1c6.2-6.2,12.5-12.5,18.7-18.7C-106.1,390.4-105.2,390-104.3,389.3z"/>
</g>
</svg>
