<?xml version="1.0" encoding="utf-8"?>
<!-- Generator: Adobe Illustrator 19.0.1, SVG Export Plug-In . SVG Version: 6.00 Build 0)  -->
<svg version="1.1" id="Слой_1" xmlns="http://www.w3.org/2000/svg" xmlns:xlink="http://www.w3.org/1999/xlink" x="0px" y="0px"
	 width="528.6px" height="156.2px" viewBox="0 0 528.6 156.2" style="enable-background:new 0 0 528.6 156.2;" xml:space="preserve"
	>
<style type="text/css">
	.st0{fill:#FFFFFF;}
</style>
<g>
	<path class="st0" d="M413.4,110.2c-0.2,0.1-0.5-0.3-0.7-0.5c-5.4-6.3-8.8-15.1-8.8-23.4c0-13.1,9.6-24.9,18-33.7
		c0.1-0.1,0.1-0.2,0.2-0.2c0.1-0.1,0.1-0.2,0.2-0.2l0.1-0.1c10.2-10.6,16.4-18.6,18.5-24c0,0,0-0.1,0-0.1c0.1,0.1,0.3,0.2,0.5,0.5
		c4.3,4.6,7.8,11.6,8.5,17c0.7,5.9-1.9,12.4-7.8,19.5c-5.2,6.2-11.9,11.5-16.7,14.9c-1.5,1-2.8,1.9-3.9,2.7
		c-10,6.5-13.1,15.9-9.1,25.9C412.7,108.6,413.5,110.1,413.4,110.2z"/>
	<path class="st0" d="M442.3,121.2c2.5-2.2,3.9-5.2,4.1-8.2c0.5-6.4-3.1-15.2-14.7-21.3c0.9-0.8,2.3-2.1,3.1-2.8
		c8.7-8.8,19-22.2,19.9-36.9c3.3,3.5,7.8,8.5,11.2,13.5c5.2,7.5,7.7,14.3,7.8,20.7c0,2.3-0.2,4.6-0.6,6.8c-1.5,7.8-5.7,14.9-11.9,20
		C456.1,117.4,449,120.5,442.3,121.2C442.3,121.3,442.2,121.3,442.3,121.2z"/>
	<polygon class="st0" points="67.2,102.7 67.2,61.5 60.7,61.5 60.7,102.7 51.1,102.7 51.1,53.1 76.7,53.1 76.7,102.7 	"/>
	<path class="st0" d="M96,103.5c-6.9,0-11.5-4.8-11.5-11.8V74.1c0.2-6.9,4.8-11.4,11.6-11.4l0.3,0c6.7,0,11.4,4.7,11.4,11.4v12.4
		H92.9v5.9c0,1.8,1.4,3.3,3.3,3.3c1.3,0,2.5-0.9,3-2.2c0.1-0.5,0.2-1,0.2-1.4h8.1c0,0.3,0,0.7-0.1,1.2
		C106.9,99.6,102.5,103.5,96,103.5z M96,70.7c-1.9,0-3.2,1.3-3.2,3.1v6.2h6.5v-5.8C99.4,72.1,98.1,70.7,96,70.7z"/>
	<polygon class="st0" points="119.3,102.7 119.3,71.5 112.1,71.5 112.1,63.5 135.1,63.5 135.1,71.5 128,71.5 128,102.7 	"/>
	<path class="st0" d="M181.9,103.5c-7,0-11.7-4.8-11.7-11.8V74.5c0-7.1,4.7-11.9,11.7-11.9c7,0,11.7,4.8,11.7,11.9v17.2
		C193.7,98.8,188.9,103.5,181.9,103.5z M181.9,70.7c-1.8,0-3,1.2-3,3.1v18.5c0,1.9,1.2,3.2,3,3.2c1.8,0,3-1.2,3-3.2V73.9
		C184.9,72,183.8,70.7,181.9,70.7z"/>
	<path class="st0" d="M271,57.7c-4.4,0-7.3-2.5-7.7-6.6c0,0,0-0.1,0-0.2h3.4c0,0.1,0,0.2,0.1,0.3c0.4,2,1.9,3.1,4.2,3.1
		c2.3,0,3.9-1.2,4.2-3.2c0-0.1,0-0.2,0.1-0.3h3.4c0,0.1,0,0.3,0,0.3C278.3,55.2,275.4,57.7,271,57.7z"/>
	<path class="st0" d="M271.7,102.8c-6.5,0-11-4.4-11-10.8V63.5h4.9v28.7c0,3.6,2.5,6,6.1,6h5.1V63.5h4.8v39.2L271.7,102.8z"/>
	<path class="st0" d="M299.4,103.5c-6.1,0-10.5-4.1-11-10.2l0-1.2h4.8c0,0.4,0,1,0.1,1.4c0.3,3.3,2.7,5.5,6.1,5.5
		c3.4,0,5.7-2.1,5.9-5.6c0-0.2,0-0.5,0-0.8c0,0,0-2.4,0-2.6c-0.3-3.4-2.6-5.4-6.3-5.4H296v-4.1h2.8c3.3,0,5.5-1.8,5.7-4.8
		c0-0.3,0-0.4,0-0.6c0-0.5,0-2.8,0-3c-0.3-2.9-2.3-4.6-5.3-4.6c-3.2,0-5,2-5.3,5.6c0,0.4,0,1.4,0,2.1h-4.8c0-0.7,0-1.7,0-2
		c0.3-6.3,4.1-10.1,10.1-10.1c5.8,0,9.7,3.5,10,9c0,0.2,0,1.3,0,2.9c0,0.2,0,0.4,0,0.6c-0.2,2.7-1.6,4.9-3.8,6.1L304,82l1.4,0.5
		c3,1.2,4.8,3.9,5,7.4c0,0.2,0,2.3,0,2.5c0,0.2,0,0.5,0,0.7C310.1,99.5,305.8,103.5,299.4,103.5z"/>
	<path class="st0" d="M328.3,103.5c-6.4,0-10.8-4.5-10.8-11.1V73.8c0.1-6.7,4.3-11,10.9-11l0.2,0c6.3,0,10.8,4.4,10.8,10.8v11.9
		h-16.9v7.2c0,3.9,2.3,6.3,6,6.3c3.2,0,5.6-2.4,5.8-6c0-0.3,0-0.6,0-1h4.8v0.9C338.8,99.2,334.4,103.5,328.3,103.5z M328.4,67.3
		c-3.7,0-6,2.5-6,6.4v7.6h12v-7.6C334.4,69.8,332.1,67.3,328.4,67.3z"/>
	<path class="st0" d="M241.6,103.5c-6.5,0-11.1-4.5-11.1-11v-2c0-5.8,4.5-10,10.8-10h6.1v-7c0-3.7-2.4-6.2-5.9-6.2
		c-3.3,0-5.4,2.1-5.6,5.6c0,0.4,0,1.5,0,2.2h-4.8v-2.3c0.4-6.1,4.5-10.1,10.5-10.1c6.4,0,10.6,4.4,10.6,11.1v18.8
		C252.3,99.1,248,103.5,241.6,103.5z M241.6,84.8c-3.5,0-6.1,2.5-6.1,5.8v2c0,3.9,2.4,6.4,6.1,6.4c3.6,0,5.9-2.4,5.9-6.2v-7.9H241.6
		z"/>
	<path class="st0" d="M201.9,102.7l0-30.4c0.3-5.8,4.3-9.5,10.2-9.5c6.1,0,10.1,3.7,10.1,9.5v2.2c0,2.9-1.2,5.2-3.4,6.5l-1.1,0.7
		l1.2,0.5c2.9,1.3,4.8,4.4,5,8.2l0,2.3c0,5.9-4.2,10-10.1,10H201.9z M206.6,98.2h6.1c3.8,0,6.3-2.3,6.3-5.9v-1.8
		c0-3.7-2.4-6.1-6.2-6.1h-6.2V98.2z M212.1,67.1c-3.3,0-5.4,2-5.5,5.2c0,0.1,0,7.9,0,7.9h5.4c3.5,0,5.6-2,5.6-5.5l0-2.4
		C217.5,69,215.5,67.1,212.1,67.1z"/>
	<path class="st0" d="M351.8,116c-2.4,0-4.3-2.1-4.3-4.1v-38c0-6.7,4.4-11.1,10.9-11.1c6.4,0,10.8,4.6,10.8,11.1v17.6
		c0,6.4-4.2,11.1-9.8,11.1h-7.1V116H351.8z M358.4,67.4c-3.7,0-6.1,2.5-6.1,6.3v24.5h6.1c3.6,0,6-2.5,6-6.3V73.7
		C364.4,69.9,362.1,67.4,358.4,67.4z"/>
	<path class="st0" d="M143.9,116c-2.4,0-4.3-2.1-4.3-4.1c0-0.1,0-0.3,0-0.4l0-37c0-7.1,4.7-11.9,11.7-11.9c7,0,11.7,4.8,11.7,11.9
		v16.4c0,6.7-4.3,11.8-10,11.8h-4.7V116H143.9z M151.3,70.7c-1.8,0-3,1.2-3,3.1v20.8h3c1.8,0,3-1.2,3-3.1V73.9
		C154.3,72,153.1,70.7,151.3,70.7z"/>
</g>
</svg>
