<?xml version="1.0" encoding="utf-8"?>
<!-- Generator: Adobe Illustrator 19.0.1, SVG Export Plug-In . SVG Version: 6.00 Build 0)  -->
<svg version="1.1" id="Слой_1" xmlns="http://www.w3.org/2000/svg" xmlns:xlink="http://www.w3.org/1999/xlink" x="0px" y="0px"
	 width="278.2px" height="278.3px" viewBox="-281 159 278.2 278.3" style="enable-background:new -281 159 278.2 278.3;"
	 xml:space="preserve">
<style type="text/css">
	.st0{fill:#5D775B;}
</style>
<path class="st0" d="M-110.9,418.5c-7.5-1.3-15.1-2.4-22.5-3.9c-16.1-3.3-31.7-8.3-46.3-16.1c-1.8-0.9-3.7-3.6-3.7-5.5
	c-0.1-10.4-0.2-20.9,0.8-31.3c0.8-8.1,5.8-13.6,13.7-16.3c8.5-2.9,17.2-5.7,25.5-9.1c5.9-2.5,11.3-6,17.3-9.3
	c6.5,20.2,13,40.3,19.5,60.5c0.4,0,0.7,0,1.1,0.1c2.5-7.1,5.2-14.1,7.5-21.2c0.3-0.9-0.6-2.2-1.2-3.3c-1.3-2.3-2.9-4.4-4-6.7
	c-1.8-3.8-3.5-7.9-0.5-11.7c3.1-4,7.6-5.1,12.4-4.6c8.3,0.9,11.8,6.6,8.9,14.4c-0.7,1.9-1.4,3.9-2.7,5.3c-3.8,4.1-3.5,8.1-1.4,12.9
	c2.2,4.8,3.7,10,6.5,15.1c6.5-20.2,12.9-40.3,19.5-60.7c5.6,3.1,10.9,6.6,16.6,9.1c7.3,3.1,14.8,5.8,22.5,8c10.4,3,16.9,9,17.9,20.1
	c0,0.6,0.5,1.1,0.8,1.6c0,9.5,0,19.1,0,28.6c-1.4,1.4-2.6,3.3-4.3,4.2c-14.7,7.6-30.4,12.8-46.6,15.9c-7.6,1.5-15.3,2.6-22.9,3.8
	C-88.1,418.5-99.5,418.5-110.9,418.5z"/>
<path class="st0" d="M-164.1,324.7c-4.1-10.1-7.8-19.1-11.9-29.1c12.1,4.4,23.4,8.2,34.5,12.7c4.3,1.7,7.2,5.6,8.7,10.6
	c-1.1,0.7-2.2,1.6-3.4,2.1c-11.6,4.7-23.1,9.6-34.9,13.7c-11.5,4-19.2,11-22.2,23c-0.4,1.4-2.4,3.5-3.6,3.5
	c-8.6,0.2-17.2,0.4-25.7-0.3c-15.8-1.4-31.2-4.5-45.5-11.9c-1.2-0.6-2.4-1.4-3.6-2c-6.6-3.3-9.5-8-9.2-16
	c0.8-17.6,4.6-23.1,21.7-27.9c7.3-2,14.6-4.4,22.1-6.7c-3.7,8.9-7.5,18.1-11.6,28.2c3.8-0.4,6.9-0.6,9.9-1.1
	c3.4-0.6,5.7,0.4,7.9,3.1c6,7.1,12.4,13.9,19.5,20.5c-0.2-1.1-0.2-2.2-0.5-3.2c-4-14.2-8.2-28.2-11.8-42.5
	c-1.3-5.1-1.5-10.6-1.7-15.9c-0.1-3-1.1-4.5-4.2-4.7c-5.2-0.4-10.4-1.1-15.5-1.7c-5.6-0.7-10.1-3.2-14.1-7.9
	c12.3-8,12.1-20.7,12.7-33.1c0.5-9.7,0-19.4,1.2-29c2.3-18.5,17.9-31.8,36.3-31.2c4.4,0.2,9.1,1.6,13.1,3.6
	c3.8,1.9,7.4,3.7,11.8,4.2c11.1,1.4,16.7,9,18.5,19.1c1.5,8.5,1.2,17.4,1.6,26.1c0.4,8.1,0.5,16.3,1.2,24.4
	c0.6,6.9,3.7,12.6,10.8,15.9c-4.3,5.9-10.4,7.1-16.6,7.9c-4.7,0.6-9.4,1.1-14.1,2c-1.1,0.2-2.9,1.9-2.8,2.8
	c0.9,16.4-7,30.6-10.7,45.8c-1.5,6-3.5,11.8-4.3,18.2c5.9-6.7,12.1-13,17.5-20.1c3.3-4.3,6.9-4.8,11.5-3.9
	C-169.5,324.2-167.2,324.3-164.1,324.7z"/>
<path class="st0" d="M-136.6,256.4c-5-19.8-4.7-37.9,13.8-50.6c-1.5-2.7-2.9-5.1-4.9-8.7c14.4,3.1,27.3,1.2,40.2,0
	c9.7-0.9,16.7,4.1,21.3,12.5c1.3,2.5,2.9,3.6,5.9,4.1c7.1,1.2,11.1,6.6,11.8,13.1c0.9,8.1,0.1,16.4-0.1,24.7c0,1.5-0.5,3-0.9,4.9
	c5.4,0.2,6.6,3.7,5.8,7.8c-1.3,6.7-2.8,13.4-4.8,19.9c-0.6,1.9-3.5,2.9-5,4.6c-1,1.1-1.8,2.5-2.1,4c-3.5,15.1-11.7,26.3-26.9,31.2
	c-21.2,6.8-44.1-7.3-48.5-29.7c-0.6-2.8-0.5-5.5-4.3-6.2c-1.3-0.3-2.9-2.5-3.3-4.2c-1.8-6.7-3.8-13.5-4.6-20.4
	C-143.8,258.1-142.3,257.2-136.6,256.4z"/>
</svg>
