<?xml version="1.0" encoding="utf-8"?>
<!-- Generator: Adobe Illustrator 19.0.1, SVG Export Plug-In . SVG Version: 6.00 Build 0)  -->
<svg version="1.1" id="Слой_1" xmlns="http://www.w3.org/2000/svg" xmlns:xlink="http://www.w3.org/1999/xlink" x="0px" y="0px"
	 width="69.8px" height="95.6px" viewBox="0 0 69.8 95.6" style="enable-background:new 0 0 69.8 95.6;" xml:space="preserve">
<style type="text/css">
	.st0{fill:#FFFFFF;}
</style>
<path class="st0" d="M9.5,84.6C9.3,84.7,9,84.2,8.8,84C3.4,77.7,0,68.9,0,60.6c0-13.1,9.6-24.9,18-33.7c0.1-0.1,0.1-0.2,0.2-0.2
	c0.1-0.1,0.1-0.2,0.2-0.2l0.1-0.1C28.8,15.8,35,7.7,37,2.4c0,0,0-0.1,0-0.1c0.1,0.1,0.3,0.2,0.5,0.5c4.3,4.6,7.8,11.6,8.5,17
	c0.7,5.9-1.9,12.4-7.8,19.5c-5.2,6.2-11.9,11.5-16.7,14.9c-1.5,1-2.8,1.9-3.9,2.7c-10,6.5-13.1,15.9-9.1,25.9
	C8.8,83,9.6,84.5,9.5,84.6z"/>
<path class="st0" d="M38.4,95.6c2.5-2.2,3.9-5.2,4.1-8.2C43,81,39.3,72.2,27.7,66.1c0.9-0.8,2.3-2.1,3.1-2.8
	c8.7-8.8,19-22.2,19.9-36.9c3.3,3.5,7.8,8.5,11.2,13.5c5.2,7.5,7.7,14.3,7.8,20.7c0,2.3-0.2,4.6-0.6,6.8c-1.5,7.8-5.7,14.9-11.9,20
	C52.1,91.7,45.1,94.8,38.4,95.6C38.3,95.6,38.3,95.6,38.4,95.6z"/>
</svg>
