<?xml version="1.0" encoding="utf-8"?>
<!-- Generator: Adobe Illustrator 19.0.1, SVG Export Plug-In . SVG Version: 6.00 Build 0)  -->
<svg version="1.1" id="Слой_1" xmlns="http://www.w3.org/2000/svg" xmlns:xlink="http://www.w3.org/1999/xlink" x="0px" y="0px"
	 width="841.9px" height="595.3px" viewBox="0 0 841.9 595.3" style="enable-background:new 0 0 841.9 595.3;" xml:space="preserve"
	>
<style type="text/css">
	.st0{fill:url(#SVGID_1_);}
	.st1{opacity:0.54;fill:#C4B905;}
	.st2{opacity:0.6;fill:#D1CE00;}
	.st3{fill:#C4B905;}
	.st4{fill:#D1CE00;}
	.st5{fill:#43331A;}
</style>
<g>
	<g>
		
			<radialGradient id="SVGID_1_" cx="337.7042" cy="-305.4509" r="49.5538" gradientTransform="matrix(1.2238 0 0 1.2238 8.3078 627.0847)" gradientUnits="userSpaceOnUse">
			<stop  offset="0.2473" style="stop-color:#918C86"/>
			<stop  offset="0.3262" style="stop-color:#8C867F"/>
			<stop  offset="0.4396" style="stop-color:#7D766C"/>
			<stop  offset="0.5737" style="stop-color:#655A4D"/>
			<stop  offset="0.7226" style="stop-color:#453522"/>
			<stop  offset="0.7967" style="stop-color:#32200A"/>
		</radialGradient>
		<path class="st0" d="M423.1,271.4c-3.6-1.8-6.9-4-9.9-6.4c-3.2-2.6-6-5.6-8.4-8.6c-12.2-15.6-14.3-35.2-8.5-41.4
			c-14.4,15.1-25.6,30.8-25.6,48.2c0,25.2,18.3,46.1,42.5,50.1c1.2,0.2,2.4,0.3,3.6,0.5c1.5,0.1,3.1,0.2,4.7,0.2
			c24.6,0,45.5-17.6,49.9-40.8C470,278.6,451,285.5,423.1,271.4z"/>
		<path class="st1" d="M399.3,260.1c1.5-1,3.4-2.2,5.5-3.7c13.7-9.7,37.2-29.7,34.7-49.9c-1.1-8.9-6.3-20.9-13.9-27.7
			c-0.9-0.8-1.5-0.4-1.9,0.9c-2,6.1-11.2,18.5-26.6,34.4c-0.3,0.3-0.6,0.6-0.8,0.9c-14.4,15.1-25.6,30.8-25.6,48.2
			c0,25.2,18.4,46.1,42.5,50.1c-4.8-1.2-16.8-4.7-23.5-16C382,284.2,383.9,270,399.3,260.1z"/>
		<path class="st2" d="M440.8,210.3c1.2,19.4-14,41-27.6,54.7c-2.3,2.3-4.5,4.4-6.7,6.3c18.8,8.2,23.4,20.7,22.7,28.6
			c-0.5,6.8-5.4,12.3-12.5,13.8c1.6,0.1,3.1,0.2,4.7,0.2c24.6,0,45.5-17.6,49.9-40.8c0.6-3.2,0.9-6.5,0.9-9.9
			c-0.3-20.8-18.3-39.9-31.1-53.4C440.7,209.4,440.8,210.3,440.8,210.3z"/>
		<path class="st3" d="M404.8,256.4c-12.2-15.6-14.3-35.2-8.5-41.4c0.3-0.3,0.5-0.6,0.8-0.9c15.3-15.9,24.6-28.3,26.6-34.4
			c0.4-1.3,1-1.7,1.9-0.9c7.6,6.7,12.8,18.7,13.9,27.7C442,226.7,418.5,246.6,404.8,256.4z"/>
		<path class="st4" d="M440.8,210.3c0,0-0.1-0.9,0.3-0.5c12.8,13.4,30.8,32.6,31.1,53.4c0.1,3.4-0.2,6.7-0.9,9.9
			c-1.4,5.5-20.4,12.4-48.3-1.7c-3.7-1.8-6.9-4-9.9-6.4C426.8,251.3,442,229.7,440.8,210.3z"/>
	</g>
	<g>
		<g>
			<g>
				<path class="st5" d="M278.4,405v-45.7h24.1V405h-9.8v-36.9h-4.6V405H278.4z"/>
				<path class="st5" d="M308.2,394.5v-15.8c0.2-6.6,4.5-10.9,11-10.9c6.3-0.1,11.1,4.2,11.1,10.9c0,6.2,0,11.7,0,11.7H317v4.7
					c0,1.4,1.1,2.3,2.3,2.3c0.9,0,1.8-0.6,2.1-1.5c0.2-0.8,0.2-1.6,0.2-1.6h8.5c0,0,0,0.8-0.1,1.7c-0.5,5.9-4.7,9.8-10.9,9.8
					C312.7,405.7,308.2,401.2,308.2,394.5z M321.6,383.5c0,0,0-3.1,0-4.6c0-1.8-1.1-2.6-2.4-2.6c-1.3,0-2.2,0.8-2.2,2.2v5H321.6z"/>
				<path class="st5" d="M339.5,405v-28H333v-8.4h21.8v8.4h-6.4v28H339.5z"/>
				<path class="st5" d="M385.1,394.5v-15.4c0-6.8,4.5-11.2,11.1-11.2c6.6,0,11.1,4.5,11.1,11.2v15.4c0,6.8-4.5,11.2-11.1,11.2
					C389.5,405.7,385.1,401.2,385.1,394.5z M398.3,395.1v-16.5c0-1.4-0.8-2.2-2.1-2.2c-1.3,0-2.1,0.8-2.1,2.2v16.5
					c0,1.4,0.8,2.2,2.1,2.2C397.5,397.3,398.3,396.4,398.3,395.1z"/>
				<g>
					<path class="st5" d="M476,364.7c4.2,0,7.2-2.5,7.5-6.5c0,0,0-0.7,0-0.8h-4.2c0,0,0,0.2-0.1,0.8c-0.3,1.5-1.4,2.4-3.2,2.4
						c-1.8,0-2.9-0.9-3.2-2.4c-0.1-0.6-0.1-0.8-0.1-0.8h-4.2c0,0.1,0,0.8,0,0.8C468.8,362.1,471.7,364.7,476,364.7z"/>
					<path class="st5" d="M480.6,368.6v31.1h-4c-2.9,0-4.9-1.9-4.9-4.8v-26.3h-5.6v26.1c0,6.1,4.4,10.3,10.5,10.3l9.5-0.1v-36.3
						H480.6z"/>
				</g>
				<path class="st5" d="M491,396c0-0.6,0-1.8,0-1.8h5.6c0,0,0,1.1,0.1,1.7c0.3,2.7,2,4.4,4.9,4.4c2.7,0,4.5-1.6,4.7-4.5
					c0-0.2,0-0.4,0-0.6c0-0.2,0-2.1,0-2.3c-0.2-2.7-1.9-4.3-5-4.3h-2.5c-0.5,0-0.8,0-0.8,0v-4.9c0,0,0.3,0,0.8,0h2.3
					c2.7,0,4.3-1.5,4.5-3.8c0-0.2,0-0.3,0-0.5c0-0.2,0-2.5,0-2.7c-0.3-2.2-1.8-3.6-4.2-3.6c-2.4,0-3.9,1.4-4.1,4.4
					c-0.1,0.6,0,2.5,0,2.5h-5.5c0,0-0.1-1.9,0-2.5c0.3-6,4.1-9.5,9.6-9.5c5.6,0,9.3,3.5,9.5,8.6c0,0.2,0,2.4,0,2.6
					c0,0.2,0,0.4,0,0.6c-0.2,2.7-1.6,4.8-3.7,6c2.8,1.1,4.7,3.7,4.9,7.2c0,0.2,0,2.1,0,2.2c0,0.2,0,0.5,0,0.7
					c-0.3,5.9-4.5,9.8-10.4,9.8C495.4,405.7,491.4,401.6,491,396z"/>
				<path class="st5" d="M517.1,395.1v-16.6c0.1-6.2,4.1-10.5,10.3-10.5c6.1-0.1,10.4,4.3,10.4,10.3c0,5.7,0,11.2,0,11.2h-15.1v5.8
					c0,3,1.8,5.1,4.8,5.1c2.7,0,4.4-1.9,4.6-4.8c0.1-0.6,0-1.4,0-1.4h5.6c0,0,0,0.9,0,1.4c-0.3,6-4.4,10.1-10.3,10.1
					C521.2,405.7,517.1,401.4,517.1,395.1z M532.2,384.6c0,0,0-3.4,0-6.2c0-3.1-1.8-5.1-4.8-5.1c-3,0-4.8,2-4.8,5.1v6.2H532.2z"/>
				<path class="st5" d="M439.1,395.2c0-0.4,0-1.4,0-1.7c0-5.7,4.6-9.6,10.3-9.6h4.9v-5.6c0-2.9-1.8-4.9-4.7-4.9
					c-2.7,0-4.2,1.8-4.4,4.5c-0.1,0.6,0,2.5,0,2.5h-5.5c0,0,0-2.1,0-2.7c0.4-5.7,4.2-9.7,10-9.7c6.2,0,10.1,4.4,10.1,10.5v16.9
					c0,6-3.9,10.3-10.1,10.3C443.4,405.7,439.1,401.3,439.1,395.2z M454.3,395.4v-6.5h-4.7c-2.6,0-4.9,1.8-4.9,4.5
					c0,0.4,0,1.4,0,1.7c0,3.1,1.8,5.1,4.9,5.1C452.6,400.3,454.3,398.4,454.3,395.4z"/>
				<path class="st5" d="M434.3,393.4c-0.1-3.6-2-6.6-4.8-7.8c2.1-1.2,3.4-3.5,3.4-6.4v-2c0-5.5-3.8-9.2-9.6-9.2
					c-5.7,0-9.4,3.7-9.7,9.2l0,27.8h11.1c5.7,0,9.7-3.9,9.7-9.6C434.3,395.3,434.3,393.5,434.3,393.4z M418.8,377.1
					c0.1-2.5,1.8-4.1,4.3-4.1c2.7,0,4.3,1.5,4.4,4.1c0,0.1,0,2.1,0,2.2c0,2.7-1.5,4.3-4.4,4.3h-4.2
					C418.8,383.6,418.8,377.2,418.8,377.1z M428.8,395c0,2.9-2,4.7-5,4.7h-4.9v-11.1h4.9c3,0,5,1.8,5,4.8V395z"/>
				<path class="st5" d="M554.3,368c-6.2,0-10.4,4.4-10.4,10.6v34c0,2.1,1.9,4.2,4.4,4.2c0.5,0,1.1,0,1.1,0V405h5.7
					c5.3,0,9.4-4.4,9.4-10.6v-15.8C564.6,372.4,560.5,368,554.3,368z M559,394.7c0,3.1-1.8,5.1-4.7,5.1h-4.8v-21.4
					c0-3.1,1.8-5.1,4.8-5.1c3,0,4.7,2,4.7,5.1V394.7z"/>
				<path class="st5" d="M368.7,367.9c-6.6,0-11.1,4.5-11.1,11.2v33.2c0,0.1,0,0.2,0,0.3c0,2.1,1.9,4.2,4.4,4.2h4.6V405h3.6
					c5.1,0,9.6-4.4,9.6-11.2v-14.7C379.8,372.3,375.3,367.9,368.7,367.9z M370.8,394.4c0,1.4-0.8,2.2-2.1,2.2h-2.1v-18.1
					c0-1.4,0.8-2.2,2.1-2.2c1.3,0,2.1,0.8,2.1,2.2V394.4z"/>
			</g>
		</g>
	</g>
</g>
</svg>
