<?xml version="1.0" encoding="utf-8"?>
<!-- Generator: Adobe Illustrator 19.0.1, SVG Export Plug-In . SVG Version: 6.00 Build 0)  -->
<svg version="1.1" id="Слой_1" xmlns="http://www.w3.org/2000/svg" xmlns:xlink="http://www.w3.org/1999/xlink" x="0px" y="0px"
	 width="278.2px" height="278.3px" viewBox="0 0 278.2 278.3" style="enable-background:new 0 0 278.2 278.3;" xml:space="preserve"
	>
<style type="text/css">
	.st0{fill:#348EA9;}
</style>
<g>
	<path class="st0" d="M141.2,118.6c6.7-6.6,13.1-13.1,19.7-19.7c-11.4-11.1-22.8-22.3-34.1-33.2c6.5-6.7,12.1-12.6,18-18.7
		c11.2,11.4,22.5,22.9,33.5,34c18.9-18.9,37.3-37.2,55.8-55.7c-18.7,0-37.6,0-56.7,0c0-8.6,0-16.8,0-25.2c33.5,0,66.9,0,100.7,0
		c0,33.5,0,67,0,100.8c-8.3,0-16.4,0-25,0c0-19,0-37.9,0-56.6c-18.4,18.4-36.8,36.8-55.2,55.2c11.8,11.7,24.1,23.9,36.2,36
		c-6.3,6.2-12.2,11.9-18.1,17.7c-11.7-11.8-23.9-24-35.9-36c-7,7-13.6,13.5-20.4,20.3c16.1,22.6,21.7,48,14.1,75.7
		c-5.8,21.2-18.1,37.9-36.3,50.2c-36.6,24.7-85,18.4-115.3-14.9c-29-31.9-30-81-2.1-115.1C47.3,100.3,98.8,87.9,141.2,118.6z
		 M151.8,189.7c0-35-28.1-63.4-62.9-63.4c-35.5,0-63.7,28.1-63.7,63.3c0,35,28.5,63.3,63.5,63.3
		C123.6,252.9,151.8,224.6,151.8,189.7z"/>
</g>
</svg>
