<?xml version="1.0" encoding="utf-8"?>
<!-- Generator: Adobe Illustrator 19.0.1, SVG Export Plug-In . SVG Version: 6.00 Build 0)  -->
<svg version="1.1" id="Слой_1" xmlns="http://www.w3.org/2000/svg" xmlns:xlink="http://www.w3.org/1999/xlink" x="0px" y="0px"
	 width="278.2px" height="278.3px" viewBox="-281 159 278.2 278.3" style="enable-background:new -281 159 278.2 278.3;"
	 xml:space="preserve">
<style type="text/css">
	.st0{fill:#7F827E;}
</style>
<g>
	<path class="st0" d="M-222.6,376.5c0.3-3.4,0.6-6.7,1-10.1c1.5-13.1,3.7-26.1,8.3-38.6c3.5-9.4,9.7-15.4,19.2-18.3
		c7.4-2.3,14.6-5.1,21.4-8.9c2.9-1.6,5.7-3.4,7.5-6.3c1.8,3.4,3.4,6.8,5.5,9.9c2.4,3.5,5,6.9,8.1,9.8c6.9,6.4,14.8,6.2,22,0
		c5.2-4.5,8.9-10.1,12.2-16.1c0.7-1.2,1.4-2.5,2.1-3.8c3.8,6.1,10.1,7.8,16.1,10.4c6.6,2.8,13.2,5.5,19.7,8.6
		c6.7,3.2,10.8,8.5,13.1,15.5c3.7,11.5,7.1,23,8.5,35.1c0.3,2.7,0.5,5.3,0.8,8c0,3.3,0,6.7,0,10c-0.1,0.6-0.3,1.2-0.3,1.8
		c0.2,4.5-2.5,7.1-6.3,8.5c-19,7.2-38.7,10.9-58.8,12.5c-2.8,0.2-5.7,0.5-8.5,0.7c-4.8,0-9.6,0-14.5,0c-0.4-0.1-0.8-0.2-1.2-0.3
		c-9.9-1.2-19.8-2.2-29.7-3.6c-14.1-2.1-27.8-5.5-41.1-11c-2.1-0.8-3.5-2.2-4.2-4.2c-0.5-1.4-0.8-2.8-1.2-4.3
		C-222.6,380-222.6,378.3-222.6,376.5z M-156.1,363.4c0,3.9,0,7.6,0.1,11.3c0,0.4,0.8,1,1.2,1c10.1,0.1,20.3,0,30.4,0.1
		c1.1,0,1.2-0.5,1.2-1.4c0-3,0-6.1,0-9.1c0-0.6-0.1-1.2-0.1-1.9C-134.4,363.4-145.1,363.4-156.1,363.4z"/>
	<path class="st0" d="M-173.8,247.3c-0.5-6.1-1.2-12-1.5-17.9c-0.5-9.6,3.8-17.2,10.8-23.4c3.5-3,7.6-5.3,11.4-8
		c1.4-1,2.7-2.2,4.3-3.5c0.2,1.1,0.2,1.8,0.4,2.8c0.7,0.3,1.6,0.6,2.8,1.2c1.1-3.5,4.1-5.2,6.8-7.3c-0.4,0.8-0.8,1.5-1.4,2.7
		c1.5-1,2.5-1.8,3.9-2.8c0.5,3,1.8,5.2,3.8,6.9c2.1,1.9,4.4,3.3,7.3,3.9c14.9,2.9,24.5,15.7,23.3,31c-0.4,4.7-1.4,9.3-2.1,14.1
		c1.6,0.3,1.9,1.9,1.7,3.5c-0.5,3.5-1.2,6.8-1.8,10.3c-0.1,0.4-0.2,0.8-0.5,1.1c-2.2,2.1-2.2,4.9-2.9,7.5c-3.2,10.6-9,19.5-18,26.1
		c-10.4,7.6-21.3,6.8-30.8-1.9c-8.3-7.7-13.6-17.1-15.5-28.3c-0.1-0.5-0.2-1.1-0.5-1.5c-3.3-4.2-3.7-9.1-3.8-14.1
		C-176.4,247.8-175.7,247.3-173.8,247.3z"/>
</g>
</svg>
