<?xml version="1.0" encoding="utf-8"?>
<!-- Generator: Adobe Illustrator 19.0.1, SVG Export Plug-In . SVG Version: 6.00 Build 0)  -->
<svg version="1.1" id="Слой_1" xmlns="http://www.w3.org/2000/svg" xmlns:xlink="http://www.w3.org/1999/xlink" x="0px" y="0px"
	 width="425.9px" height="380.2px" viewBox="0 0 425.9 380.2" style="enable-background:new 0 0 425.9 380.2;" xml:space="preserve"
	>
<style type="text/css">
	.st0{fill:#FFFFFF;}
</style>
<g>
	<path class="st0" d="M182.6,179.2c-0.2,0.1-0.6-0.4-0.8-0.6c-6.5-7.6-10.6-18.2-10.6-28.2c0-15.8,11.6-29.9,21.7-40.5
		c0.1-0.1,0.2-0.2,0.3-0.3c0.1-0.1,0.2-0.2,0.3-0.3l0.1-0.1c12.3-12.7,19.7-22.4,22.2-28.8c0,0,0-0.1,0.1-0.1
		c0.1,0.1,0.3,0.2,0.6,0.5c5.2,5.5,9.4,13.9,10.2,20.4c0.9,7.1-2.3,15-9.3,23.4c-6.2,7.5-14.3,13.9-20,17.9
		c-1.8,1.3-3.3,2.3-4.7,3.2c-12,7.8-15.8,19.1-10.9,31.1C181.7,177.3,182.8,179.1,182.6,179.2z"/>
	<path class="st0" d="M217.3,192.5c3.1-2.7,4.7-6.3,4.9-9.9c0.6-7.6-3.8-18.3-17.7-25.6c1.1-0.9,2.8-2.5,3.7-3.4
		c10.4-10.5,22.8-26.7,24-44.4c3.9,4.2,9.3,10.2,13.5,16.3c6.2,9.1,9.3,17.2,9.4,24.9c0,2.7-0.2,5.5-0.7,8.2
		c-1.8,9.4-6.9,17.9-14.4,24.1C233.9,187.8,225.4,191.6,217.3,192.5C217.3,192.5,217.3,192.5,217.3,192.5z"/>
</g>
<g>
	<polygon class="st0" points="84.9,278.6 84.9,241.7 79.1,241.7 79.1,278.6 70.6,278.6 70.6,234.1 93.4,234.1 93.4,278.6 	"/>
	<path class="st0" d="M110.7,279.3c-6.2,0-10.3-4.3-10.3-10.6v-15.8c0.2-6.2,4.3-10.3,10.4-10.3l0.3,0c6,0,10.2,4.2,10.2,10.3V264
		H108v5.3c0,1.6,1.3,2.9,2.9,2.9c1.2,0,2.3-0.8,2.7-1.9c0.1-0.5,0.2-0.9,0.2-1.2h7.3c0,0.3,0,0.7-0.1,1
		C120.5,275.8,116.6,279.3,110.7,279.3z M110.8,249.9c-1.7,0-2.8,1.2-2.8,2.8v5.6h5.8v-5.2C113.8,251.2,112.6,249.9,110.8,249.9z"/>
	<polygon class="st0" points="131.6,278.6 131.6,250.6 125.2,250.6 125.2,243.5 145.8,243.5 145.8,250.6 139.4,250.6 139.4,278.6 	
		"/>
	<path class="st0" d="M187.7,279.3c-6.3,0-10.5-4.3-10.5-10.6v-15.4c0-6.4,4.2-10.6,10.5-10.6c6.3,0,10.5,4.3,10.5,10.6v15.4
		C198.2,275.1,194,279.3,187.7,279.3z M187.7,249.9c-1.6,0-2.7,1.1-2.7,2.8v16.5c0,1.7,1.1,2.8,2.7,2.8c1.6,0,2.7-1.1,2.7-2.8v-16.5
		C190.4,251,189.4,249.9,187.7,249.9z"/>
	<path class="st0" d="M267.5,238.3c-3.9,0-6.6-2.3-6.9-6c0,0,0-0.1,0-0.2h3.1c0,0.1,0,0.2,0.1,0.3c0.3,1.8,1.7,2.8,3.8,2.8
		c2.1,0,3.5-1,3.8-2.9c0-0.1,0-0.2,0.1-0.3h3.1c0,0.1,0,0.2,0,0.2C274.1,236,271.4,238.3,267.5,238.3z"/>
	<path class="st0" d="M268.2,278.7c-5.8,0-9.9-4-9.9-9.7v-25.5h4.4v25.7c0,3.2,2.2,5.4,5.5,5.4h4.6v-31.1h4.3v35.1L268.2,278.7z"/>
	<path class="st0" d="M293,279.3c-5.5,0-9.4-3.7-9.8-9.1l0-1.1h4.3c0,0.4,0,0.9,0.1,1.2c0.3,3,2.4,4.9,5.5,4.9
		c3.1,0,5.1-1.9,5.3-5.1c0-0.2,0-0.4,0-0.7c0,0,0-2.1,0-2.4c-0.3-3.1-2.3-4.8-5.6-4.8H290v-3.7h2.5c3,0,4.9-1.6,5.1-4.3
		c0-0.2,0-0.4,0-0.6c0-0.4,0-2.5,0-2.7c-0.3-2.6-2.1-4.1-4.8-4.1c-2.8,0-4.5,1.8-4.7,5c0,0.4,0,1.3,0,1.9h-4.3c0-0.6,0-1.5,0-1.8
		c0.3-5.7,3.7-9,9-9c5.2,0,8.7,3.1,8.9,8c0,0.2,0,1.2,0,2.6c0,0.2,0,0.3,0,0.5c-0.1,2.4-1.4,4.4-3.4,5.5l-1.1,0.6l1.2,0.5
		c2.7,1.1,4.3,3.5,4.5,6.7c0,0.2,0,2,0,2.2c0,0.2,0,0.4,0,0.6C302.6,275.7,298.7,279.3,293,279.3z"/>
	<path class="st0" d="M318.9,279.3c-5.8,0-9.7-4-9.7-10v-16.6c0.1-6,3.9-9.9,9.7-9.9l0.1,0c5.7,0,9.6,4,9.6,9.7v10.6h-15.1v6.4
		c0,3.5,2.1,5.7,5.4,5.7c2.9,0,5-2.2,5.2-5.4c0-0.3,0-0.6,0-0.9h4.3v0.8C328.3,275.5,324.4,279.3,318.9,279.3z M319,246.9
		c-3.3,0-5.4,2.2-5.4,5.8v6.8h10.8v-6.8C324.4,249.1,322.3,246.9,319,246.9z"/>
	<path class="st0" d="M241.2,279.3c-5.8,0-9.9-4.1-9.9-9.9v-1.7c0-5.2,4.1-8.9,9.7-8.9h5.5v-6.2c0-3.3-2.1-5.5-5.3-5.5
		c-2.9,0-4.8,1.9-5,5c0,0.4,0,1.3,0,2h-4.3v-2c0.4-5.5,4.1-9.1,9.4-9.1c5.7,0,9.5,4,9.5,9.9v16.9
		C250.8,275.4,246.9,279.3,241.2,279.3z M241.2,262.5c-3.1,0-5.5,2.2-5.5,5.2v1.7c0,3.5,2.2,5.8,5.5,5.8c3.3,0,5.3-2.1,5.3-5.5v-7.1
		H241.2z"/>
	<path class="st0" d="M205.7,278.6l0-27.2c0.3-5.2,3.9-8.6,9.1-8.6c5.5,0,9,3.4,9,8.6v2c0,2.6-1.1,4.7-3.1,5.9l-1,0.6l1.1,0.5
		c2.6,1.2,4.3,4,4.5,7.3l0,2c0,5.3-3.7,8.9-9.1,8.9H205.7z M209.8,274.5h5.5c3.4,0,5.6-2.1,5.6-5.3v-1.7c0-3.3-2.2-5.4-5.6-5.4h-5.6
		V274.5z M214.7,246.7c-2.9,0-4.9,1.8-4.9,4.7c0,0.1,0,7.1,0,7.1h4.9c3.2,0,5-1.8,5-4.9l0-2.2C219.6,248.4,217.8,246.7,214.7,246.7z
		"/>
	<path class="st0" d="M339.9,290.5c-2.2,0-3.8-1.9-3.8-3.6v-34c0-6,3.9-10,9.8-10c5.7,0,9.7,4.1,9.7,10v15.8c0,5.7-3.8,10-8.8,10
		h-6.3v11.9H339.9z M345.9,246.9c-3.3,0-5.4,2.2-5.4,5.7v22h5.4c3.3,0,5.3-2.2,5.3-5.7v-16.3C351.2,249.2,349.1,246.9,345.9,246.9z"
		/>
	<path class="st0" d="M153.6,290.5c-2.2,0-3.8-1.9-3.8-3.6c0-0.1,0-0.2,0-0.4l0-33.1c0-6.4,4.2-10.6,10.5-10.6
		c6.3,0,10.5,4.3,10.5,10.6V268c0,6-3.8,10.6-8.9,10.6h-4.3v11.9H153.6z M160.3,249.9c-1.6,0-2.7,1.1-2.7,2.8v18.7h2.7
		c1.6,0,2.7-1.1,2.7-2.8v-15.8C163,251,161.9,249.9,160.3,249.9z"/>
</g>
</svg>
