<?xml version="1.0" encoding="utf-8"?>
<!-- Generator: Adobe Illustrator 19.0.1, SVG Export Plug-In . SVG Version: 6.00 Build 0)  -->
<svg version="1.1" id="Слой_1" xmlns="http://www.w3.org/2000/svg" xmlns:xlink="http://www.w3.org/1999/xlink" x="0px" y="0px"
	 width="278.2px" height="278.3px" viewBox="-281 159 278.2 278.3" style="enable-background:new -281 159 278.2 278.3;"
	 xml:space="preserve">
<style type="text/css">
	.st0{fill:#F04946;}
</style>
<g>
	<path class="st0" d="M-151.5,395.9c-2.6,0-4.9,0-7.3,0c-10.6,0-21.3-0.1-31.9,0.1c-2.6,0-3.2-0.8-3.1-3.2c0.2-6,0.1-12,0.1-18.1
		c0-0.9,0-1.8,0-3c14.3,0,28.1,0,42.3,0c0-3.5,0-6.6,0-9.8c0-6.3-0.1-12.6,0-18.9c0-1.8-0.6-2.5-2.3-2.8
		c-38.7-6.4-68.3-35.9-75.1-74.5c-8.2-47.9,24.4-95.1,71.9-104c47.8-9,93.4,19,105.3,66.2c9.1,36.1-1.2,67-29,91.8
		c-12.6,11.3-27.6,17.9-44.4,20.6c-0.8,0.1-2,1.2-2,1.9c-0.1,9.7-0.1,19.3-0.1,29.3c14.1,0,28,0,42.1,0c0,8.2,0,16.1,0,24.3
		c-14,0-27.9,0-42,0c0,14.2,0,28.1,0,42.4c-3.4,0-6.4,0-9.5,0c-4,0-8.1-0.1-12.1,0c-2.2,0.1-2.7-0.7-2.7-2.8c0.1-12.3,0-24.6,0-37
		C-151.3,397.8-151.4,397-151.5,395.9z M-139.1,184.1c-36.5,0-66.6,29.3-66.7,65.2c-0.1,38,28.9,67.7,66.3,67.8
		c37,0.1,66.8-29.5,66.9-66.4C-72.5,213.9-102.2,184.1-139.1,184.1z"/>
</g>
</svg>
